# xmcd CD database file
#
# Track frame offsets:
#	150
#	6095
#	26617
#	57412
#	89125
#	92852
#	102462
#	129188
#	135785
#	145007
#	172212
#	186042
#	211246
#	255768
#
# Disc length: 3540 seconds
#
# Revision: 0
# Processed by: cddbd v1.5.1PL0 Copyright (c) Steve Scherf et al.
# Submitted via: CDex 1.50
#
DISCID=b90dd20e
DTITLE=ちょむ工房 - 強いて言うならちょむらじお
DYEAR=2004
DGENRE=Retro
TTITLE0=真田ちろる、TakeponG/ナンセンス・ワールド
TTITLE1=おがた＆TakeponG/オープニング・トーク
TTITLE2=紫季伊冬那、おがた、みろみろ☆むむ、JAXX RAMONE/萌<<えろげ>>の大学
TTITLE3=JAXX RAMONE、ひらめ、おがた＆TakeponG/トーク
TTITLE4=紫季伊冬那、崔岳弥/バナナ
TTITLE5=すぺらんかー、Yamajet、TOx2RO/プロポーズ
TTITLE6=すぺらんかー、Yamajet、みろみろ☆むむ、梶木鮪、おがた＆TakeponG/トーク
TTITLE7=TakeponG、梶木鮪、崔岳弥/大丈夫です
TTITLE8=真田ちろる(2役)、崔岳弥/L⇔R
TTITLE9=真田ちろる、おがた＆TakeponG/トーク
TTITLE10=真田ちろる、おがた、TakeponG/ごゆっくりどうぞ
TTITLE11=紫季伊冬那、崔岳弥/ロック
TTITLE12=紫季伊冬那、おがた＆TakeponG/トーク
TTITLE13=おがた＆TakeponG/エンディング・トーク
EXTD=YEAR: 2004
EXTT0=
EXTT1=
EXTT2=
EXTT3=
EXTT4=
EXTT5=
EXTT6=
EXTT7=
EXTT8=
EXTT9=
EXTT10=
EXTT11=
EXTT12=
EXTT13=
PLAYORDER=
